<svg width="26" height="26" viewBox="0 0 26 26" fill="none" xmlns="http://www.w3.org/2000/svg">
<g opacity="0.26">
<path d="M23.7148 3.09766H8.37891C7.11887 3.09766 6.09375 4.12278 6.09375 5.38281C6.09375 6.64285 7.11887 7.66797 8.37891 7.66797H23.7148C24.9749 7.66797 26 6.64285 26 5.38281C26 4.12278 24.9749 3.09766 23.7148 3.09766ZM23.7148 6.14453H8.37891C7.95889 6.14453 7.61719 5.80282 7.61719 5.38281C7.61719 4.9628 7.95889 4.62109 8.37891 4.62109H23.7148C24.1349 4.62109 24.4766 4.9628 24.4766 5.38281C24.4766 5.80282 24.1349 6.14453 23.7148 6.14453Z" fill="#22212D"/>
<path d="M23.7148 10.7148H8.37891C7.11887 10.7148 6.09375 11.74 6.09375 13C6.09375 14.26 7.11887 15.2852 8.37891 15.2852H23.7148C24.9749 15.2852 26 14.26 26 13C26 11.74 24.9749 10.7148 23.7148 10.7148ZM23.7148 13.7617H8.37891C7.95889 13.7617 7.61719 13.42 7.61719 13C7.61719 12.58 7.95889 12.2383 8.37891 12.2383H23.7148C24.1349 12.2383 24.4766 12.58 24.4766 13C24.4766 13.42 24.1349 13.7617 23.7148 13.7617Z" fill="#22212D"/>
<path d="M23.7148 18.332H8.37891C7.11887 18.332 6.09375 19.3572 6.09375 20.6172C6.09375 21.8772 7.11887 22.9023 8.37891 22.9023H23.7148C24.9749 22.9023 26 21.8772 26 20.6172C26 19.3572 24.9749 18.332 23.7148 18.332ZM23.7148 21.3789H8.37891C7.95889 21.3789 7.61719 21.0372 7.61719 20.6172C7.61719 20.1972 7.95889 19.8555 8.37891 19.8555H23.7148C24.1349 19.8555 24.4766 20.1972 24.4766 20.6172C24.4766 21.0372 24.1349 21.3789 23.7148 21.3789Z" fill="#22212D"/>
<path d="M2.28516 3.09766C1.02512 3.09766 0 4.12278 0 5.38281C0 6.64285 1.02512 7.66797 2.28516 7.66797C3.54519 7.66797 4.57031 6.64285 4.57031 5.38281C4.57031 4.12278 3.54519 3.09766 2.28516 3.09766ZM2.28516 6.14453C1.86514 6.14453 1.52344 5.80282 1.52344 5.38281C1.52344 4.9628 1.86514 4.62109 2.28516 4.62109C2.70517 4.62109 3.04688 4.9628 3.04688 5.38281C3.04688 5.80282 2.70517 6.14453 2.28516 6.14453Z" fill="#22212D"/>
<path d="M2.28516 10.7148C1.02512 10.7148 0 11.74 0 13C0 14.26 1.02512 15.2852 2.28516 15.2852C3.54519 15.2852 4.57031 14.26 4.57031 13C4.57031 11.74 3.54519 10.7148 2.28516 10.7148ZM2.28516 13.7617C1.86514 13.7617 1.52344 13.42 1.52344 13C1.52344 12.58 1.86514 12.2383 2.28516 12.2383C2.70517 12.2383 3.04688 12.58 3.04688 13C3.04688 13.42 2.70517 13.7617 2.28516 13.7617Z" fill="#22212D"/>
<path d="M2.28516 18.332C1.02512 18.332 0 19.3572 0 20.6172C0 21.8772 1.02512 22.9023 2.28516 22.9023C3.54519 22.9023 4.57031 21.8772 4.57031 20.6172C4.57031 19.3572 3.54519 18.332 2.28516 18.332ZM2.28516 21.3789C1.86514 21.3789 1.52344 21.0372 1.52344 20.6172C1.52344 20.1972 1.86514 19.8555 2.28516 19.8555C2.70517 19.8555 3.04688 20.1972 3.04688 20.6172C3.04688 21.0372 2.70517 21.3789 2.28516 21.3789Z" fill="#22212D"/>
</g>
</svg>
