<svg width="52" height="52" viewBox="0 0 52 52" fill="none" xmlns="http://www.w3.org/2000/svg">
<g opacity="0.43">
<path d="M26 52C19.0552 52 12.5259 49.2956 7.61516 44.3848C2.70441 39.4741 0 32.9448 0 26C0 19.0552 2.70451 12.526 7.61516 7.61516C12.5258 2.7043 19.0552 0 26 0C32.9448 0 39.4741 2.70441 44.3848 7.61516C49.2956 12.5259 52 19.0552 52 26C52 32.9448 49.2955 39.474 44.3848 44.3848C39.4742 49.2957 32.9448 52 26 52V52ZM26 3.25C13.4556 3.25 3.25 13.4556 3.25 26C3.25 38.5444 13.4556 48.75 26 48.75C38.5444 48.75 48.75 38.5444 48.75 26C48.75 13.4556 38.5444 3.25 26 3.25Z" fill="#F3F7FA"/>
<path d="M26 24.375C23.7599 24.375 21.9375 22.5526 21.9375 20.3125C21.9375 18.0724 23.7599 16.25 26 16.25C28.2401 16.25 30.0625 18.0724 30.0625 20.3125C30.0625 21.2099 30.79 21.9375 31.6875 21.9375C32.585 21.9375 33.3125 21.2099 33.3125 20.3125C33.3125 16.839 30.8772 13.9254 27.625 13.1842V11.375C27.625 10.4776 26.8975 9.75 26 9.75C25.1025 9.75 24.375 10.4776 24.375 11.375V13.1842C21.1228 13.9254 18.6875 16.839 18.6875 20.3125C18.6875 24.3446 21.9679 27.625 26 27.625C28.2401 27.625 30.0625 29.4474 30.0625 31.6875C30.0625 33.9276 28.2401 35.75 26 35.75C23.7599 35.75 21.9375 33.9276 21.9375 31.6875C21.9375 30.7901 21.21 30.0625 20.3125 30.0625C19.415 30.0625 18.6875 30.7901 18.6875 31.6875C18.6875 35.161 21.1228 38.0746 24.375 38.8158V40.625C24.375 41.5224 25.1025 42.25 26 42.25C26.8975 42.25 27.625 41.5224 27.625 40.625V38.8158C30.8772 38.0746 33.3125 35.161 33.3125 31.6875C33.3125 27.6554 30.0321 24.375 26 24.375Z" fill="#F3F7FA"/>
</g>
</svg>
