<svg width="34" height="34" viewBox="0 0 34 34" fill="none" xmlns="http://www.w3.org/2000/svg">
<path d="M25.1754 0H8.82355C3.71039 0 0 3.71148 0 8.82465V25.1754C0 30.2885 3.71039 34 8.82355 34H25.1754C30.2885 34 34 30.2885 34 25.1754V8.82465C34 3.71148 30.2885 0 25.1754 0ZM31.8065 25.1754C31.8065 29.0799 29.0799 31.8065 25.1754 31.8065H8.82355C4.92013 31.8065 2.19355 29.0799 2.19355 25.1754V8.82465C2.19355 4.92013 4.92013 2.19355 8.82355 2.19355H25.1754C29.0799 2.19355 31.8065 4.92013 31.8065 8.82465V25.1754Z" fill="#F3F7FA"/>
<path d="M16.0842 18.0916C15.6455 17.5147 15.017 17.1067 14.2021 16.8676C14.835 16.5539 15.3066 16.1426 15.6192 15.6337C15.9317 15.1248 16.0886 14.5819 16.0886 14.005C16.0886 13.3853 15.912 12.792 15.5599 12.2239C15.2079 11.6557 14.7187 11.2357 14.0968 10.9626C13.475 10.6895 12.6458 10.5513 11.6148 10.5513H6.55322V24.046H11.6982C12.5581 24.046 13.283 23.9714 13.8753 23.8212C14.4675 23.6698 14.96 23.4483 15.3526 23.1532C15.7453 22.8593 16.0754 22.4403 16.3419 21.8974C16.6084 21.3534 16.7423 20.7666 16.7423 20.1349C16.7423 19.3485 16.5229 18.6685 16.0842 18.0916ZM8.33877 16.2216V12.1449H11.0357C12.0053 12.1449 12.6897 12.2074 13.0889 12.3324C13.4881 12.4586 13.7941 12.6911 14.0091 13.0322C14.2241 13.3744 14.3315 13.7681 14.3315 14.2156C14.3315 14.6883 14.2164 15.081 13.9861 15.3935C13.7557 15.7061 13.4135 15.931 12.9595 16.0659C12.6162 16.17 12.0481 16.2227 11.2573 16.2227H8.33877V16.2216V16.2216ZM14.6266 21.2712C14.4478 21.6002 14.2208 21.8492 13.9455 22.0224C13.6691 22.1935 13.3258 22.3164 12.9145 22.3899C12.682 22.4326 12.2762 22.4557 11.6993 22.4557H8.33877V22.4546V17.8152H11.4591C12.319 17.8152 12.9759 17.8898 13.4333 18.0411C13.8906 18.1903 14.2482 18.4524 14.5059 18.8232C14.7637 19.1939 14.8931 19.6315 14.8931 20.1349C14.8931 20.5648 14.8043 20.9421 14.6266 21.2712Z" fill="#F3F7FA"/>
<path d="M27.4479 19.1432C27.4479 17.5288 27.0333 16.2773 26.2052 15.3868C25.3761 14.494 24.3089 14.0498 23.0015 14.0498C21.6514 14.0498 20.5546 14.5039 19.7068 15.412C18.8601 16.3212 18.4368 17.5968 18.4368 19.2419C18.4368 20.8312 18.8557 22.0661 19.6926 22.9479C20.5316 23.8275 21.6646 24.2673 23.0959 24.2673C24.2299 24.2673 25.1622 23.991 25.8937 23.4393C26.6242 22.8865 27.1232 22.11 27.393 21.1097L25.681 20.9002C25.4298 21.5989 25.0898 22.1089 24.6577 22.4281C24.2288 22.7472 23.7112 22.9062 23.1035 22.9062C22.2875 22.9062 21.6064 22.6211 21.0592 22.0508C20.5141 21.4793 20.2113 20.6568 20.1488 19.5841H27.4391C27.4457 19.3878 27.4479 19.2408 27.4479 19.1432ZM20.241 18.2197V18.2186C20.2947 17.3653 20.5832 16.6853 21.0997 16.1753C21.6196 15.6664 22.2601 15.4109 23.0191 15.4109C23.8603 15.4109 24.5447 15.7312 25.0723 16.3695C25.4144 16.7808 25.6239 17.3972 25.6985 18.2197H20.241Z" fill="#F3F7FA"/>
<path d="M25.7117 11.7573H20.1751L20.1609 13.1195H25.7215L25.7117 11.7573Z" fill="#F3F7FA"/>
</svg>
