<svg width="26" height="26" viewBox="0 0 26 26" fill="none" xmlns="http://www.w3.org/2000/svg">
<path d="M13 0C5.83208 0 0 5.83208 0 13C0 20.1679 5.83208 26 13 26C20.1679 26 26 20.1679 26 13C26 5.83208 20.1679 0 13 0ZM20.2657 9.57895L11.9574 17.8221C11.4687 18.3108 10.6867 18.3434 10.1654 17.8546L5.76692 13.8471C5.24561 13.3584 5.21303 12.5439 5.66917 12.0226C6.15789 11.5013 6.97243 11.4687 7.49373 11.9574L10.98 15.1504L18.4085 7.72181C18.9298 7.2005 19.7444 7.2005 20.2657 7.72181C20.787 8.24311 20.787 9.05764 20.2657 9.57895Z" fill="#F3F7FA"/>
</svg>
