<svg width="34" height="34" viewBox="0 0 34 34" fill="none" xmlns="http://www.w3.org/2000/svg">
<path d="M4.98047 34H16.0703V21.9141H12.0859V17.9297H16.0703V12.9492C16.0703 10.203 18.3045 7.96875 21.0508 7.96875H26.0312V11.9531H22.0469C20.9483 11.9531 20.0547 12.8468 20.0547 13.9453V17.9297H25.8515L25.1874 21.9141H20.0547V34H29.0195C31.7658 34 34 31.7658 34 29.0195V4.98047C34 2.23421 31.7658 0 29.0195 0H4.98047C2.23421 0 0 2.23421 0 4.98047V29.0195C0 31.7658 2.23421 34 4.98047 34ZM1.99219 4.98047C1.99219 3.33276 3.33276 1.99219 4.98047 1.99219H29.0195C30.6672 1.99219 32.0078 3.33276 32.0078 4.98047V29.0195C32.0078 30.6672 30.6672 32.0078 29.0195 32.0078H22.0469V23.9062H26.8751L28.2032 15.9375H22.0469V13.9453H28.0234V5.97656H21.0508C17.206 5.97656 14.0781 9.1044 14.0781 12.9492V15.9375H10.0938V23.9062H14.0781V32.0078H4.98047C3.33276 32.0078 1.99219 30.6672 1.99219 29.0195V4.98047Z" fill="#F3F7FA"/>
</svg>
