<svg width="26" height="26" viewBox="0 0 26 26" fill="none" xmlns="http://www.w3.org/2000/svg">
<g opacity="0.4">
<path d="M22.9531 2.03125H21.7344V0H19.7031V2.03125H6.29688V0H4.26562V2.03125H3.04688C1.36683 2.03125 0 3.39808 0 5.07812V22.9531C0 24.6332 1.36683 26 3.04688 26H22.9531C24.6332 26 26 24.6332 26 22.9531V5.07812C26 3.39808 24.6332 2.03125 22.9531 2.03125ZM23.9688 22.9531C23.9688 23.5131 23.5131 23.9688 22.9531 23.9688H3.04688C2.48686 23.9688 2.03125 23.5131 2.03125 22.9531V9.54688H23.9688V22.9531ZM23.9688 7.51562H2.03125V5.07812C2.03125 4.51811 2.48686 4.0625 3.04688 4.0625H4.26562V6.09375H6.29688V4.0625H19.7031V6.09375H21.7344V4.0625H22.9531C23.5131 4.0625 23.9688 4.51811 23.9688 5.07812V7.51562Z" fill="#22212D"/>
<path d="M5.89062 11.6797H3.85938V13.7109H5.89062V11.6797Z" fill="#22212D"/>
<path d="M9.95312 11.6797H7.92188V13.7109H9.95312V11.6797Z" fill="#22212D"/>
<path d="M14.0156 11.6797H11.9844V13.7109H14.0156V11.6797Z" fill="#22212D"/>
<path d="M18.0781 11.6797H16.0469V13.7109H18.0781V11.6797Z" fill="#22212D"/>
<path d="M22.1406 11.6797H20.1094V13.7109H22.1406V11.6797Z" fill="#22212D"/>
<path d="M5.89062 15.7422H3.85938V17.7734H5.89062V15.7422Z" fill="#22212D"/>
<path d="M9.95312 15.7422H7.92188V17.7734H9.95312V15.7422Z" fill="#22212D"/>
<path d="M14.0156 15.7422H11.9844V17.7734H14.0156V15.7422Z" fill="#22212D"/>
<path d="M18.0781 15.7422H16.0469V17.7734H18.0781V15.7422Z" fill="#22212D"/>
<path d="M5.89062 19.8047H3.85938V21.8359H5.89062V19.8047Z" fill="#22212D"/>
<path d="M9.95312 19.8047H7.92188V21.8359H9.95312V19.8047Z" fill="#22212D"/>
<path d="M14.0156 19.8047H11.9844V21.8359H14.0156V19.8047Z" fill="#22212D"/>
<path d="M18.0781 19.8047H16.0469V21.8359H18.0781V19.8047Z" fill="#22212D"/>
<path d="M22.1406 15.7422H20.1094V17.7734H22.1406V15.7422Z" fill="#22212D"/>
</g> 
</svg>
