<svg width="30" height="30" viewBox="0 0 30 30" fill="none" xmlns="http://www.w3.org/2000/svg">
<path d="M15 0C6.72932 0 0 6.72932 0 15C0 23.2707 6.72932 30 15 30C23.2707 30 30 23.2707 30 15C30 6.72932 23.2707 0 15 0ZM23.3835 11.0526L13.797 20.5639C13.2331 21.1278 12.3308 21.1654 11.7293 20.6015L6.65414 15.9774C6.05263 15.4135 6.01504 14.4737 6.54135 13.8722C7.10526 13.2707 8.04511 13.2331 8.64662 13.797L12.6692 17.4812L21.2406 8.90977C21.8421 8.30827 22.782 8.30827 23.3835 8.90977C23.985 9.51128 23.985 10.4511 23.3835 11.0526Z" fill="#F3F7FA"/>
</svg>
