<?xml version="1.0" encoding="utf-8"?><svg xmlns="http://www.w3.org/2000/svg" xmlns:xlink="http://www.w3.org/1999/xlink"><symbol viewBox="0 0 26 26" id="checked" xmlns="http://www.w3.org/2000/svg"><path d="M13 0C5.832 0 0 5.832 0 13s5.832 13 13 13 13-5.832 13-13S20.168 0 13 0zm7.266 9.579l-8.309 8.243a1.278 1.278 0 01-1.792.033l-4.398-4.008a1.321 1.321 0 01-.098-1.824 1.289 1.289 0 011.825-.066l3.486 3.193 7.428-7.428a1.298 1.298 0 011.858 0 1.298 1.298 0 010 1.857z"/></symbol><symbol viewBox="0 0 512 512" id="github" xmlns="http://www.w3.org/2000/svg"><path d="M256 0C115.3 0 0 116.3 0 257c0 139.883 114.25 255 256 255 141.574 0 256-114.945 256-255C512 116.3 396.7 0 256 0zm45 477.5c-14.398 3-29.7 4.5-45 4.5s-30.602-1.5-45-4.5v-70.2c0-16.8 4.5-22.8 10.5-30.902 3.055-3.492 4.898-6.625 18.598-27.296L217 345.5c-59.402-8.7-82.8-39.602-92.102-63.602-12-32.097-5.699-72.3 15.903-97.796 3.3-3.903 6-10.504 3.601-17.403-4.504-13.8-3.902-35.699-.902-44.101 15.906 2.273 32.262 13.668 45.902 21.902 6.286 3.668 9.582 2.7 12.598 3 10.96-2.281 28.059-7.8 54.3-7.8 16.2 0 33.302 2.398 50.102 7.198 3.004-.07 7.832 2.485 16.2-2.398 14.257-8.687 30.058-19.691 45.898-21.902 3 8.402 3.602 30.3-.898 44.101-2.403 6.899.296 13.5 3.601 17.403 21.598 25.5 27.899 65.699 15.899 97.796-9.301 24-32.7 54.903-92.102 63.602l-23.098 3.602c14.16 21.367 15.653 23.93 18.602 27.296C296.5 384.5 301 390.5 301 407.301zm30-8.7v-61.5c0-17.1-3.602-28.5-8.402-36.902 45.601-12.296 78.004-39.3 92.402-78 15.3-40.796 8.402-89.398-17.102-123 4.504-20.097 4.504-52.199-6.296-67.199C386.8 95.602 380.199 92 371.8 92h-.301c-23.262 1.258-41.57 12.973-61.2 24.898-18-4.8-36.3-7.199-54.6-7.199-18.598 0-37.2 2.7-53.696 7.2C181.34 104.437 163.207 93.226 139.3 92c-7.5 0-14.102 3.602-18.903 10.2-10.796 15-10.796 47.1-6.296 67.198-25.504 33.602-32.403 82.5-17.102 123 14.398 38.7 46.8 65.704 92.402 78-3.722 6.512-6.668 14.915-7.828 26.286-9.21 3.175-17.199 4.21-24.629 2.027-7.836-2.316-13.941-7.547-19.246-16.469-11.914-20.015-32.207-36.355-55.312-34.23l2.636 29.883c10.7-.98 21.348 10.34 26.88 19.671 9.124 15.368 21.417 25.446 36.546 29.914 11.23 3.31 21.496 3.23 32.551.872V468.8C93.7 438.199 30 354.8 30 257 30 132.8 131.8 30 256 30s226 102.8 226 227c0 97.8-63.7 181.2-151 211.8zm0 0"/></symbol><symbol viewBox="0 0 512 512" id="mail" xmlns="http://www.w3.org/2000/svg"><path d="M467 76H45C20.137 76 0 96.262 0 121v270c0 24.885 20.285 45 45 45h422c24.655 0 45-20.03 45-45V121c0-24.694-20.057-45-45-45zm-6.302 30L287.82 277.967c-8.5 8.5-19.8 13.18-31.82 13.18s-23.32-4.681-31.848-13.208L51.302 106h409.396zM30 384.894V127.125L159.638 256.08 30 384.894zM51.321 406l129.587-128.763 22.059 21.943c14.166 14.166 33 21.967 53.033 21.967s38.867-7.801 53.005-21.939l22.087-21.971L460.679 406H51.321zM482 384.894L352.362 256.08 482 127.125v257.769z"/></symbol><symbol viewBox="0 -39 512 512" id="telegram" xmlns="http://www.w3.org/2000/svg"><path d="M504.094 11.86C497.84 4.21 488.473 0 477.714 0c-5.847 0-12.042 1.23-18.41 3.664L25.907 169.105c-23 8.778-26.097 21.95-25.898 29.02s4.039 20.047 27.5 27.512c.14.043.281.086.422.125l89.898 25.726 48.617 139.024c6.63 18.953 21.508 30.726 38.836 30.726 10.926 0 21.672-4.578 31.078-13.234l55.606-51.2 80.652 64.942c.008.008.02.012.028.02l.765.617.215.168c8.965 6.953 18.75 10.625 28.309 10.629h.003c18.676 0 33.547-13.825 37.88-35.215l71.011-350.64c2.852-14.075.461-26.669-6.734-35.466zM147.902 246.601l173.442-88.606L213.348 272.75a14.975 14.975 0 00-3.641 6.684l-20.824 84.351zm68.133 139.332c-.719.66-1.441 1.25-2.164 1.793l19.32-78.25 35.145 28.3zm265.39-344.567l-71.01 350.645c-.685 3.355-2.868 11.164-8.481 11.164-2.774 0-6.258-1.512-9.825-4.258l-91.39-73.586a.173.173 0 00-.043-.031l-54.38-43.79 156.177-165.949a15 15 0 00-17.746-23.636L127.859 223.152l-91.12-26.07 433.265-165.39c3.66-1.399 6.215-1.692 7.71-1.692.919 0 2.552.11 3.157.855.797.973 1.813 4.29.555 10.512zm0 0"/></symbol></svg>